# xmcd
#
# Track frame offsets: 
#        180
#        21643
#        33955
#        49506
#        65716
#        84424
#        105075
#        115161
#        130942
#        149863
#        168037
#        177369
#
# Disc length: 2538 seconds
#
# Revision: 0
# Processed by: cddbd v1.5.1PL2 Copyright (c) Steve Scherf et al.
# Submitted via: ExactAudioCopy v0.95b3
#
DISCID=a009e80c
DTITLE=Amanda - Milied ma'... Amanda
DYEAR=1900
DGENRE=Holliday
TTITLE0=Biex Tlaqtni 'Last Christmas'
TTITLE1=Rudolph
TTITLE2=Holma ta' Milied Hieni 'White Christmas'
TTITLE3=B'Dan it-Tamburlin 'Little Drummer Boy'
TTITLE4=Kienet Tfajla 'Giant's Daughter'
TTITLE5=Kien il-Milied 'Mary's Boy Child'
TTITLE6=Duru Madwar il Christmas Tree 'Rocking Around The Christmas Tr
TTITLE6=ee'
TTITLE7=Ingawdu l-Milied 'Feliz Navidad'
TTITLE8=Milied Hieni lill-Bnedmin Kollha 'Merry Christmas Everybody'
TTITLE9=Waslet Sena Ohra 'War Is Over'
TTITLE10=Inhossuna Tassew Kuntenti (medley)
TTITLE11=Ghaddiet Sena 'Auld Lang Syne'
EXTD=
EXTT0=
EXTT1=
EXTT2=
EXTT3=
EXTT4=
EXTT5=
EXTT6=
EXTT7=
EXTT8=
EXTT9=
EXTT10=
EXTT11=
PLAYORDER=
